<svg xmlns="http://www.w3.org/2000/svg" width="500" height="500" style="width:100%;height:100%;transform:translate3d(0,0,0);content-visibility:visible" viewBox="0 0 500 500"><defs><clipPath id="a"><path d="M0 0h500v500H0z"/></clipPath></defs><g clip-path="url(#a)"><g fill="#F18AA8" style="display:block"><path d="M394.546 121.81c-16.818-16.625-38.175-26.797-61.762-29.416-30.548-3.392-60.532 6.502-82.79 27.205-19.35-17.994-44.472-27.864-71.103-27.864-27.725 0-53.8 10.69-73.446 30.073-19.63 19.367-30.442 45.122-30.442 72.518 0 27.397 10.811 53.153 30.441 72.518l142.126 140.36a3.452 3.452 0 0 0 2.427.993c.911 0 1.783-.358 2.426-.993l142.12-140.36c19.638-19.393 30.454-45.142 30.454-72.497 0-27.382-10.824-53.134-30.451-72.537z"/><path d="M89.233-130.426c-19.312-17.759-44.756-27.866-71.104-27.866-27.725 0-53.799 10.691-73.446 30.074-19.631 19.367-30.444 45.123-30.444 72.52S-74.948-2.546-55.318 16.82L84.383 154.786c4.17 4.118 4.853 3.389 4.853 3.389l-.003-288.601z" opacity=".5" style="mix-blend-mode:multiply" transform="translate(160.761 250.025) scale(.99999)"/></g><path fill="none" stroke="#EBE6EE" stroke-linecap="round" stroke-linejoin="round" stroke-width="3.01" d="M-13.393-45.431c-4.067-2.059-8.191-3.462-11.494-3.462a29.19 29.19 0 0 0-20.696 8.581 29.105 29.105 0 0 0-7.885 14.347" style="display:block" transform="matrix(2.73 0 0 2.73 250 250)"/><path fill="none" stroke="#121330" stroke-linecap="round" stroke-linejoin="round" stroke-width="2.38" d="M41.413 4.273a29.184 29.184 0 0 0 8.581-20.684 29.19 29.19 0 0 0-8.581-20.696A29.118 29.118 0 0 0 24.011-45.5c-8.543-.961-17.427 1.837-23.977 8.393l-.035.035-.036-.035a29.184 29.184 0 0 0-20.684-8.581 29.189 29.189 0 0 0-20.695 8.581c-11.437 11.425-11.437 29.955 0 41.38L-.001 45.688 41.413 4.273z" style="display:block" transform="matrix(3.5 0 0 3.5 250 250)"/><g class="com" style="display:none"><path/><path/><path/><path/><path/><path/><path/><path/><path/><path/><path/><path/></g></g></svg>